# Blender 5.0.0
# www.blender.org
mtllib arma.mtl
o Plane_0
v -1.641380 1.064190 -0.000000
v -2.262640 0.887880 -0.000000
v -1.652560 1.274770 -0.000000
v -1.641380 1.064190 0.339850
v -1.652560 1.274770 0.339850
v -2.262640 0.887880 0.339850
v 3.507930 0.754260 -0.000000
v 3.494970 1.118200 -0.000000
v 3.494970 1.118200 0.110810
v 3.494970 1.118200 0.233710
v 3.494970 1.118200 0.339850
v 3.507930 0.754260 0.339850
v 3.507930 0.754260 0.110810
v -1.382050 1.290380 0.233710
v -1.382050 1.290380 0.110810
v -1.399300 1.380390 0.182550
v -1.524000 1.282190 0.110810
v -1.524000 1.282190 0.233710
v -1.541260 1.372200 0.173240
v 0.460420 -0.082630 0.000000
v 1.322620 -0.089940 0.000000
v 1.322620 -0.089940 0.110810
v 1.322620 -0.089940 0.233710
v 1.322620 -0.089940 0.339850
v 0.460420 -0.082630 0.339850
v 0.460420 -0.082630 0.110810
v 0.460420 -0.082630 0.233710
v 3.402040 1.300610 -0.000000
v 3.194640 1.299560 -0.000000
v 3.194640 1.299560 0.110810
v 3.194640 1.299560 0.233710
v 3.194640 1.299560 0.339850
v 3.402040 1.300610 0.339850
v 3.402040 1.300610 0.110810
v -0.225840 0.493600 -0.000000
v -0.208560 0.645120 -0.000000
v 0.460420 0.645120 -0.000000
v 0.460420 0.495330 -0.000000
v 1.460280 0.352360 -0.000000
v 1.609250 0.356380 -0.000000
v 1.451070 -0.091030 0.000000
v 0.460420 0.359670 -0.000000
v -1.250070 0.481630 -0.000000
v -1.232790 0.619930 -0.000000
v -0.292510 -0.091030 0.000000
v -0.653510 -1.568610 0.000000
v -1.635770 -1.358720 0.000000
v -1.316750 -0.091030 0.000000
v -1.221620 1.080980 -0.000000
v -1.216000 1.299960 -0.000000
v -0.233750 1.299960 -0.000000
v -0.225320 1.080980 -0.000000
v 0.477210 1.299960 -0.000000
v 0.471600 1.080980 -0.000000
v 1.641480 1.301040 -0.000000
v 1.610590 1.079260 -0.000000
v 1.787770 1.076110 -0.000000
v 1.711330 0.645120 -0.000000
v 1.549130 0.637810 -0.000000
v -1.265720 0.356380 -0.000000
v -0.241490 0.356380 -0.000000
v 1.502500 0.488020 -0.000000
v 1.657760 0.493600 -0.000000
v 3.427790 0.622120 -0.000000
v 3.524850 0.629170 -0.000000
v 3.540180 0.515890 -0.000000
v 3.439790 0.507590 -0.000000
v 3.406220 1.116010 -0.000000
v 3.414530 0.748580 -0.000000
v 3.488450 1.301040 -0.000000
v 1.826170 1.292650 -0.000000
v 3.193220 1.110760 -0.000000
v 3.190380 0.734970 -0.000000
v 3.194840 0.605210 -0.000000
v 3.198880 0.487690 -0.000000
v -1.528480 0.617600 -0.000000
v -1.392200 0.618680 -0.000000
v -1.660960 0.387510 -0.000000
v -1.651910 0.616630 -0.000000
v -1.517770 1.069130 -0.000000
v -1.524000 1.282190 -0.000000
v -2.273160 0.616630 -0.000000
v -2.265420 0.387510 -0.000000
v -4.381050 0.395900 -0.000000
v -4.388790 0.625030 -0.000000
v -4.378270 0.896280 -0.000000
v -2.785930 0.102070 -0.000000
v -4.381040 0.110460 -0.000000
v -4.095610 -0.527580 0.000000
v -4.381050 -0.535980 0.000000
v -1.381280 1.074590 -0.000000
v -1.382050 1.290380 -0.000000
v -0.225840 0.493600 0.339850
v 0.460420 0.495330 0.339850
v 0.460420 0.645120 0.339850
v -0.229550 0.645120 0.339850
v 1.460280 0.352360 0.339850
v 1.451070 -0.091030 0.339850
v 1.609250 0.356380 0.339850
v 0.460420 0.359670 0.339850
v -1.232790 0.619930 0.339850
v -1.250070 0.481630 0.339850
v -0.292510 -0.091030 0.339850
v -1.316750 -0.091030 0.339850
v -1.635770 -1.358720 0.339850
v -0.653510 -1.568610 0.339850
v -1.221620 1.080980 0.339850
v -0.225320 1.080980 0.339850
v -0.233750 1.299960 0.339850
v -1.216000 1.299960 0.339850
v 0.471600 1.080980 0.339850
v 0.477210 1.299960 0.339850
v 1.610590 1.079260 0.339850
v 1.641480 1.301040 0.339850
v 1.549130 0.637810 0.339850
v 1.711330 0.645120 0.339850
v 1.787770 1.076110 0.339850
v -0.241490 0.356380 0.339850
v -1.265720 0.356380 0.339850
v 1.502500 0.488020 0.339850
v 1.657760 0.493600 0.339850
v 3.427790 0.622120 0.339850
v 3.439790 0.507590 0.339850
v 3.540180 0.515890 0.339850
v 3.524850 0.629170 0.339850
v 3.406220 1.116010 0.339850
v 3.414530 0.748580 0.339850
v 3.488450 1.301040 0.339850
v 1.826170 1.292650 0.339850
v 3.416390 0.744230 0.055570
v 4.067130 0.744230 0.055570
v 4.067130 0.744230 0.286210
v 3.416390 0.744230 0.286210
v 3.193220 1.110760 0.339850
v 3.190380 0.734970 0.339850
v 3.198880 0.487690 0.339850
v 3.194840 0.605210 0.339850
v -1.392200 0.618680 0.339850
v -1.528480 0.617600 0.339850
v -1.651910 0.616630 0.339850
v -1.660960 0.387510 0.339850
v -1.517770 1.069130 0.339850
v -1.524000 1.282190 0.339850
v -2.273160 0.616630 0.339850
v -2.265420 0.387510 0.339850
v -4.388790 0.625030 0.339850
v -4.381050 0.395900 0.339850
v -4.378270 0.896280 0.339850
v -4.381040 0.110460 0.339850
v -2.785930 0.102070 0.339850
v -4.381050 -0.535980 0.339850
v -4.095610 -0.527580 0.339850
v -1.382050 1.290380 0.339850
v -1.381280 1.074590 0.339850
v -1.652560 1.274770 0.233710
v -2.262640 0.887880 0.233710
v -4.378270 0.896280 0.233710
v -4.388790 0.625030 0.233710
v 3.198880 0.487690 0.233710
v 3.439790 0.507590 0.233710
v 3.524850 0.629170 0.233710
v 3.507930 0.754260 0.233710
v 3.540180 0.515890 0.233710
v 3.488450 1.301040 0.233710
v 3.402040 1.300610 0.233710
v -4.381050 0.395900 0.233710
v -4.381040 0.110460 0.233710
v -0.292510 -0.091030 0.233710
v -2.785930 0.102070 0.233710
v -2.265420 0.387510 0.233710
v 1.826170 1.292650 0.233710
v -1.635770 -1.358720 0.233710
v -0.653510 -1.568610 0.233710
v -4.381050 -0.535980 0.233710
v -4.095610 -0.527580 0.233710
v -1.316750 -0.091030 0.233710
v -0.233750 1.299960 0.233710
v -1.216000 1.299960 0.233710
v 1.451070 -0.091030 0.233710
v 1.641480 1.301040 0.233710
v 0.477210 1.299960 0.233710
v -1.660960 0.387510 0.233710
v 4.067130 1.115660 0.055570
v 3.416390 1.115660 0.055570
v 3.416390 1.115660 0.286210
v 4.067130 1.115660 0.286210
v 1.609250 0.356380 0.233710
v -4.388790 0.625030 0.110810
v -4.381050 0.395900 0.110810
v -2.265420 0.387510 0.110810
v -1.660960 0.387510 0.110810
v 1.451070 -0.091030 0.110810
v 1.609250 0.356380 0.110810
v 3.198880 0.487690 0.110810
v 3.540180 0.515890 0.110810
v 3.524850 0.629170 0.110810
v 1.826170 1.292650 0.110810
v 1.641480 1.301040 0.110810
v 0.477210 1.299960 0.110810
v -0.233750 1.299960 0.110810
v -1.316750 -0.091030 0.110810
v -1.652560 1.274770 0.110810
v -1.216000 1.299960 0.110810
v -4.095610 -0.527580 0.110810
v -2.785930 0.102070 0.110810
v -0.653510 -1.568610 0.110810
v -0.292510 -0.091030 0.110810
v -4.381040 0.110460 0.110810
v -4.381050 -0.535980 0.110810
v -1.635770 -1.358720 0.110810
v 3.488450 1.301040 0.110810
v -2.262640 0.887880 0.110810
v -4.378270 0.896280 0.110810
v 3.439790 0.507590 0.110810
v -1.541260 1.581310 -0.000000
v -1.399300 1.589500 -0.000000
v -1.399300 1.589500 0.339850
v -1.541260 1.581310 0.339850
v -1.468020 0.935180 0.340400
v -1.468020 1.056660 0.340400
v -1.468020 1.056660 -0.001740
v -1.468020 0.935180 -0.001740
v 0.897130 0.935180 -0.108220
v 0.897130 1.056660 -0.001740
v 1.027900 1.056660 -0.001740
v 1.027900 0.935180 -0.001740
v 1.027900 1.056660 0.340400
v 1.027900 0.935180 0.340400
v -1.351550 0.935180 0.435310
v -1.351550 1.056660 0.340400
v 0.897130 0.540350 -0.001740
v 1.027900 0.540350 -0.001740
v 1.027900 0.540350 0.340400
v 0.897130 0.540350 0.340400
v -1.351550 1.056660 -0.001740
v 0.897130 1.056660 0.340400
v -1.351550 0.540350 -0.001740
v -1.351550 0.540350 0.340400
v 0.897130 0.935180 0.435310
v -1.351550 0.935180 -0.108220
v -1.468020 0.540350 -0.001740
v -1.468020 0.540350 0.340400
v 0.897130 0.661840 0.435310
v -1.351550 0.661840 0.435310
v -1.468020 0.661840 -0.001740
v -1.351550 0.661840 -0.108220
v 0.897130 0.661840 -0.108220
v 1.027900 0.661840 0.340400
v -1.468020 0.661840 0.340400
v 1.027900 0.661840 -0.001740
v 3.321510 1.663020 0.007090
v 3.321510 1.493330 -0.063200
v 3.162140 1.493330 -0.063200
v 3.162140 1.663020 0.007090
v 3.321510 1.323650 0.007090
v 3.321510 1.253360 0.176780
v 3.162140 1.253360 0.176780
v 3.162140 1.323650 0.007090
v 3.321510 1.493330 0.416750
v 3.321510 1.663020 0.346460
v 3.162140 1.663020 0.346460
v 3.162140 1.493330 0.416750
v 3.321510 1.323650 0.346460
v 3.162140 1.323650 0.346460
v 3.321510 1.733310 0.176780
v 3.162140 1.733310 0.176780
v 3.160310 1.513770 0.194540
v 3.324240 1.513770 0.194540
v 3.324240 1.513770 0.158450
v 3.160310 1.513770 0.158450
v 3.324240 1.225110 0.158450
v 3.160310 1.225110 0.158450
v 3.324240 1.225110 0.194540
v 3.160310 1.225110 0.194540
v 3.321510 1.291010 0.176780
v 3.321510 1.350270 0.319840
v 3.321510 1.493330 -0.025540
v 3.321510 1.350270 0.033710
v 3.321510 1.636390 0.319840
v 3.321510 1.695650 0.176780
v 3.321510 1.493330 0.379100
v 3.321510 1.636390 0.033710
v 3.162140 1.350270 0.319840
v 3.162140 1.291010 0.176780
v 3.162140 1.350270 0.033710
v 3.162140 1.493330 -0.025540
v 3.162140 1.695650 0.176780
v 3.162140 1.636390 0.319840
v 3.162140 1.493330 0.379100
v 3.162140 1.636390 0.033710
v 3.162140 1.493330 -0.025540
v 3.162140 1.636390 0.033710
v 3.162140 1.636390 0.033710
v 3.162140 1.350270 0.033710
v 3.162140 1.350270 0.033710
v 3.321510 1.493330 0.379100
v 3.321510 1.493330 0.379100
v 3.321510 1.636390 0.033710
v 3.321510 1.636390 0.033710
v 3.321510 1.350270 0.033710
v 3.321510 1.350270 0.033710
v 3.321510 1.493330 -0.025540
v 3.160310 1.225110 0.158450
v 3.160310 1.225110 0.158450
v 3.160310 1.513770 0.158450
v 3.160310 1.513770 0.158450
v 3.324240 1.225110 0.158450
v 3.324240 1.225110 0.158450
v 3.324240 1.513770 0.158450
v 3.324240 1.513770 0.158450
v 3.324240 1.225110 0.194540
v 3.324240 1.225110 0.194540
v 3.324240 1.513770 0.194540
v 3.324240 1.513770 0.194540
v 3.162140 1.493330 0.416750
v 3.162140 1.493330 0.416750
v 3.162140 1.323650 0.346460
v 3.162140 1.663020 0.346460
v 3.321510 1.323650 0.346460
v 3.321510 1.663020 0.346460
v 3.162140 1.695650 0.176780
v 3.162140 1.695650 0.176780
v 3.162140 1.291010 0.176780
v 3.162140 1.291010 0.176780
v 3.162140 1.733310 0.176780
v 3.162140 1.733310 0.176780
v 3.162140 1.253360 0.176780
v 3.162140 1.253360 0.176780
v 3.321510 1.695650 0.176780
v 3.321510 1.695650 0.176780
v 3.321510 1.291010 0.176780
v 3.321510 1.291010 0.176780
v 3.321510 1.733310 0.176780
v 3.321510 1.733310 0.176780
v 3.321510 1.253360 0.176780
v 3.321510 1.253360 0.176780
v 3.162140 1.323650 0.007090
v 3.162140 1.663020 0.007090
v 3.321510 1.493330 -0.063200
v 3.321510 1.493330 -0.063200
v -1.351550 0.540350 -0.001740
v -1.351550 1.056660 -0.001740
v -1.351550 1.056660 -0.001740
v 1.027900 0.661840 -0.001740
v 1.027900 0.661840 -0.001740
v 1.027900 0.540350 -0.001740
v 1.027900 0.540350 -0.001740
v 1.027900 0.935180 -0.001740
v 1.027900 1.056660 -0.001740
v 1.027900 1.056660 -0.001740
v 1.027900 1.056660 -0.001740
v -1.468020 0.661840 -0.001740
v -1.468020 0.540350 -0.001740
v -1.468020 0.540350 -0.001740
v -1.468020 0.540350 -0.001740
v -1.468020 0.935180 -0.001740
v -1.468020 0.935180 -0.001740
v -1.468020 1.056660 -0.001740
v -1.468020 1.056660 -0.001740
v -1.399300 1.589500 0.339850
v -1.399300 1.589500 0.339850
v -1.541260 1.581310 -0.000000
v -1.541260 1.581310 -0.000000
v -1.541260 1.581310 0.339850
v -1.541260 1.581310 0.339850
v -4.378270 0.896280 0.110810
v 3.488450 1.301040 0.110810
v -0.653510 -1.568610 0.110810
v 3.162140 1.493330 0.379100
v 3.162140 1.493330 0.379100
v 1.609250 0.356380 0.110810
v -1.382050 1.290380 -0.000000
v -1.382050 1.290380 -0.000000
v -4.388790 0.625030 -0.000000
v -4.381040 0.110460 -0.000000
v -4.381050 -0.535980 0.000000
v -4.381050 -0.535980 0.000000
v -2.262640 0.887880 -0.000000
v -1.216000 1.299960 -0.000000
v 3.321510 1.493330 0.416750
v 3.321510 1.493330 0.416750
v 3.488450 1.301040 -0.000000
v 3.488450 1.301040 -0.000000
v 3.540180 0.515890 -0.000000
v 3.540180 0.515890 -0.000000
v -1.382050 1.290380 0.110810
v -1.382050 1.290380 0.110810
v -1.382050 1.290380 0.110810
v 3.524850 0.629170 -0.000000
v 3.321510 1.636390 0.319840
v 3.321510 1.350270 0.319840
v -1.660960 0.387510 -0.000000
v -1.660960 0.387510 -0.000000
v 3.198880 0.487690 -0.000000
v -2.265420 0.387510 -0.000000
v 3.162140 1.493330 -0.063200
v 3.162140 1.493330 -0.063200
v 3.507930 0.754260 -0.000000
v -4.378270 0.896280 0.339850
v -4.378270 0.896280 0.339850
v 0.460420 -0.082630 0.000000
v -1.382050 1.290380 0.233710
v -1.382050 1.290380 0.233710
v -1.382050 1.290380 0.233710
v -1.652560 1.274770 -0.000000
v -1.524000 1.282190 0.110810
v -1.524000 1.282190 0.110810
v -1.524000 1.282190 0.110810
v 0.897130 1.056660 0.340400
v 0.897130 1.056660 0.340400
v 0.897130 0.540350 0.340400
v -1.316750 -0.091030 0.233710
v -0.233750 1.299960 -0.000000
v -1.541260 1.372200 0.173240
v -1.541260 1.372200 0.173240
v -1.541260 1.372200 0.173240
v -2.785930 0.102070 -0.000000
v -2.262640 0.887880 0.339850
v 1.322620 -0.089940 0.000000
v -1.399300 1.380390 0.182550
v -1.399300 1.380390 0.182550
v -1.399300 1.380390 0.182550
v 3.439790 0.507590 -0.000000
v -1.524000 1.282190 0.233710
v -1.524000 1.282190 0.233710
v -1.524000 1.282190 0.233710
v -4.378270 0.896280 -0.000000
v -4.378270 0.896280 -0.000000
v 3.416390 0.744230 0.055570
v 3.416390 0.744230 0.055570
v 3.416390 1.115660 0.055570
v 3.416390 1.115660 0.055570
v 1.451070 -0.091030 0.000000
v 1.451070 -0.091030 0.000000
v 3.507930 0.754260 0.339850
v 3.507930 0.754260 0.339850
v -0.292510 -0.091030 0.000000
v -0.292510 -0.091030 0.000000
v -4.381040 0.110460 0.339850
v 3.402040 1.300610 -0.000000
v 3.494970 1.118200 -0.000000
v 0.897130 0.540350 -0.001740
v 0.897130 0.540350 -0.001740
v 0.897130 1.056660 -0.001740
v -0.292510 -0.091030 0.233710
v 1.322620 -0.089940 0.339850
v 1.451070 -0.091030 0.110810
v 0.460420 -0.082630 0.339850
v -2.785930 0.102070 0.339850
v 3.162140 1.636390 0.319840
v 3.162140 1.350270 0.319840
v 3.194640 1.299560 0.339850
v -0.292510 -0.091030 0.110810
v -1.652560 1.274770 0.339850
v 0.477210 1.299960 -0.000000
v 3.321510 1.323650 0.007090
v 3.321510 1.663020 0.007090
v -4.381050 0.395900 -0.000000
v 3.194640 1.299560 -0.000000
v -4.381050 0.395900 0.339850
v -4.381050 -0.535980 0.339850
v -4.381050 -0.535980 0.339850
v -1.316750 -0.091030 0.000000
v -1.316750 -0.091030 0.000000
v 3.402040 1.300610 0.339850
v 3.402040 1.300610 0.339850
v 3.494970 1.118200 0.339850
v -0.653510 -1.568610 0.000000
v -0.653510 -1.568610 0.000000
v 1.451070 -0.091030 0.339850
v 1.451070 -0.091030 0.339850
v -4.095610 -0.527580 0.339850
v 1.609250 0.356380 0.233710
v 3.160310 1.225110 0.194540
v 3.160310 1.225110 0.194540
v 3.160310 1.513770 0.194540
v 3.160310 1.513770 0.194540
v 1.609250 0.356380 0.339850
v 1.609250 0.356380 0.339850
v -0.292510 -0.091030 0.339850
v -0.292510 -0.091030 0.339850
v 1.641480 1.301040 -0.000000
v 1.826170 1.292650 -0.000000
v -1.316750 -0.091030 0.339850
v -1.316750 -0.091030 0.339850
v -1.216000 1.299960 0.339850
v -1.316750 -0.091030 0.110810
v -1.635770 -1.358720 0.339850
v -1.635770 -1.358720 0.339850
v -0.653510 -1.568610 0.339850
v -0.653510 -1.568610 0.339850
v -1.660960 0.387510 0.233710
v -4.378270 0.896280 0.233710
v 3.439790 0.507590 0.339850
v 3.540180 0.515890 0.339850
v 3.540180 0.515890 0.339850
v 3.524850 0.629170 0.339850
v 3.488450 1.301040 0.339850
v 3.488450 1.301040 0.339850
v 1.641480 1.301040 0.339850
v 1.826170 1.292650 0.339850
v 0.477210 1.299960 0.339850
v 4.067130 0.744230 0.055570
v 4.067130 0.744230 0.055570
v 4.067130 1.115660 0.055570
v 4.067130 1.115660 0.055570
v 4.067130 0.744230 0.286210
v 4.067130 0.744230 0.286210
v 4.067130 1.115660 0.286210
v 4.067130 1.115660 0.286210
v -1.524000 1.282190 -0.000000
v -1.524000 1.282190 -0.000000
v 3.416390 0.744230 0.286210
v 3.416390 0.744230 0.286210
v 3.416390 1.115660 0.286210
v 3.416390 1.115660 0.286210
v -4.095610 -0.527580 0.000000
v -1.351550 0.540350 0.340400
v -1.351550 0.540350 0.340400
v -1.351550 1.056660 0.340400
v 3.488450 1.301040 0.233710
v -1.399300 1.589500 -0.000000
v -1.399300 1.589500 -0.000000
v 3.198880 0.487690 0.339850
v -1.660960 0.387510 0.339850
v -1.660960 0.387510 0.339850
v -1.635770 -1.358720 0.110810
v -1.524000 1.282190 0.339850
v -1.524000 1.282190 0.339850
v -2.265420 0.387510 0.339850
v 1.027900 0.661840 0.340400
v 1.027900 0.540350 0.340400
v 1.027900 0.540350 0.340400
v 1.027900 0.540350 0.340400
v 1.027900 0.935180 0.340400
v 1.027900 0.935180 0.340400
v 1.027900 1.056660 0.340400
v 1.027900 1.056660 0.340400
v -1.635770 -1.358720 0.000000
v -1.635770 -1.358720 0.000000
v -4.388790 0.625030 0.339850
v -1.382050 1.290380 0.339850
v -1.382050 1.290380 0.339850
v 3.540180 0.515890 0.233710
v -4.381050 -0.535980 0.233710
v -1.468020 0.661840 0.340400
v -1.468020 0.661840 0.340400
v -1.468020 0.540350 0.340400
v -1.468020 0.540350 0.340400
v -1.468020 1.056660 0.340400
v -1.468020 1.056660 0.340400
v -1.468020 1.056660 0.340400
v -1.468020 0.935180 0.340400
v -1.635770 -1.358720 0.233710
v -0.653510 -1.568610 0.233710
v 1.609250 0.356380 -0.000000
v 1.609250 0.356380 -0.000000
v 1.451070 -0.091030 0.233710
v -0.233750 1.299960 0.339850
v -4.381050 -0.535980 0.110810
v -1.660960 0.387510 0.110810
v 3.540180 0.515890 0.110810
vn -0.0000 -0.0000 -1.0000
vn -0.0000 -0.0000 1.0000
vn 0.9990 0.0455 -0.0000
vn 0.9994 0.0356 -0.0000
vn 0.9981 0.0613 -0.0000
vn 0.9821 0.1882 -0.0000
vn 0.9944 0.0944 0.0474
vn 0.9951 0.0985 -0.0000
vn -0.9821 -0.1883 -0.0000
vn -0.9940 -0.0964 0.0509
vn -0.9952 -0.0980 -0.0000
vn -0.0041 -1.0000 -0.0000
vn -0.0085 -1.0000 -0.0000
vn 0.0007 -1.0000 -0.0000
vn 0.0025 -1.0000 -0.0000
vn 0.0028 -1.0000 -0.0000
vn -0.0051 1.0000 -0.0000
vn -0.0000 -1.0000 -0.0000
vn -0.4681 0.8837 -0.0000
vn -0.1429 0.9897 -0.0000
vn -0.2236 0.9747 -0.0000
vn -0.4203 0.9074 -0.0000
vn -0.9992 0.0388 -0.0000
vn -1.0000 0.0064 -0.0000
vn -0.9999 0.0172 -0.0000
vn 0.0823 -0.9966 -0.0000
vn 0.9910 0.1340 -0.0000
vn 0.0824 -0.9966 -0.0000
vn 0.0040 1.0000 -0.0000
vn -0.0050 1.0000 -0.0000
vn -0.9999 -0.0154 -0.0000
vn -1.0000 -0.0000 -0.0000
vn -0.9998 -0.0208 -0.0000
vn 0.0112 -0.9999 -0.0000
vn 0.4468 -0.8947 -0.0000
vn 0.2520 -0.9677 -0.0000
vn 0.3277 -0.9448 -0.0000
vn 0.4414 -0.8973 -0.0000
vn 0.0007 1.0000 -0.0000
vn -0.0018 1.0000 -0.0000
vn -0.2090 -0.9779 -0.0000
vn 0.0294 -0.9996 -0.0000
vn 0.3687 -0.9295 -0.0000
vn 0.3251 -0.9457 -0.0000
vn -0.9698 0.2440 -0.0000
vn 0.9714 -0.2373 -0.0000
vn -0.0000 1.0000 -0.0000
vn -0.0080 1.0000 -0.0000
vn -0.0045 1.0000 -0.0000
vn -0.0576 0.9983 -0.0000
vn 0.0057 1.0000 -0.0000
vn -0.0005 1.0000 -0.0000
vn -0.0008 1.0000 -0.0000
vn 0.0103 0.9999 -0.0000
vn -0.8118 -0.5839 -0.0000
vn 1.0000 -0.0000 -0.0000
vn 0.9910 0.1341 -0.0000
vn 0.9428 -0.3333 -0.0000
vn -1.0000 0.0050 -0.0000
vn -0.9999 -0.0148 -0.0000
vn 0.2417 -0.9704 -0.0000
vn 0.0011 1.0000 -0.0000
vn 0.0052 1.0000 -0.0000
vn -0.4728 0.8812 -0.0000
vn -0.0086 1.0000 -0.0000
vn 0.3732 -0.9278 -0.0000
vn 0.4476 -0.8942 -0.0000
vn -0.1339 0.9910 -0.0000
vn -0.5012 0.8653 -0.0000
vn -0.0763 0.9971 0.0001
vn -1.0000 -0.0068 -0.0000
vn -1.0000 -0.0097 -0.0000
vn 0.4548 -0.8906 -0.0000
vn 0.1629 -0.9866 -0.0000
vn 0.3999 -0.9165 -0.0000
vn -0.0146 0.9999 -0.0000
vn 0.0025 1.0000 -0.0000
vn -0.0094 0.6123 -0.7906
vn 0.0057 0.5990 -0.8007
vn -0.0042 0.6055 -0.7958
vn -0.0359 0.6227 -0.7816
vn -0.0622 0.6467 0.7602
vn -0.0870 0.6356 0.7671
vn -0.0623 0.6467 0.7602
vn -0.0379 0.6572 0.7528
vn -0.9952 -0.0790 -0.0581
vn -0.9959 -0.0575 -0.0694
vn -0.9983 -0.0576 -0.0000
vn -0.9950 -0.0789 0.0605
vn 0.9983 0.0576 -0.0000
vn 0.9954 0.0780 0.0556
vn 0.9948 0.0799 -0.0634
vn 0.9954 0.0574 -0.0763
vn 0.0579 -0.5181 -0.8534
vn 0.0861 -0.5442 -0.8346
vn 0.0283 -0.4898 -0.8714
vn 0.0576 -0.9983 -0.0000
vn -0.0357 0.6187 -0.7848
vn -0.0081 0.5966 -0.8025
vn 0.0265 0.1593 -0.9869
vn -0.0000 0.6592 -0.7520
vn 0.6314 -0.0000 -0.7754
vn -0.0238 0.1422 0.9896
vn -0.0000 0.6157 0.7880
vn -0.6317 -0.0000 0.7752
vn 0.5766 0.1910 0.7944
vn 0.0314 0.6154 0.7876
vn 0.0479 0.3315 0.9422
vn -0.0534 0.3681 -0.9282
vn -0.0339 0.6588 -0.7516
vn -0.6618 0.1952 -0.7238
vn 0.0237 -0.1423 0.9895
vn -0.0482 -0.3329 0.9417
vn -0.6747 -0.0000 -0.7381
vn -0.0266 -0.1591 -0.9869
vn 0.0530 -0.3667 -0.9288
vn 0.5874 -0.0000 0.8093
vn -0.6210 -0.1832 0.7621
vn 0.6180 -0.2047 -0.7590
vn 0.0336 -0.6587 -0.7516
vn -0.0316 -0.6153 0.7876
vn -0.0000 -0.6156 0.7880
vn -0.0000 -0.6591 -0.7520
vn -0.0000 0.6038 -0.7972
vn -0.0000 0.3827 -0.9239
vn -0.0000 0.7972 -0.6038
vn -0.0000 -0.7972 -0.6038
vn -0.0000 -0.9239 -0.3827
vn -0.0000 -0.6038 -0.7972
vn -0.0000 0.3827 0.9239
vn -0.0000 0.7972 0.6038
vn -0.0000 0.6038 0.7972
vn -0.0000 -0.3827 -0.9239
vn -0.0000 -0.6038 0.7972
vn -0.0000 -0.3827 0.9239
vn -0.0000 -0.7972 0.6038
vn -0.0000 0.9239 -0.3827
vn -0.0000 0.9239 0.3827
vn -0.0000 -0.9239 0.3827
vn -0.0001 0.7972 -0.6038
vn -0.0000 -0.1367 0.9906
vn -0.0000 -0.3826 0.9239
vn -0.0000 0.1367 0.9906
vn -0.0000 0.3826 0.9239
s 0
usemtl Material.001
f 1//1 2//1 3//1
f 4//2 5//2 6//2
s 1
f 7//3 8//4 9//4
f 10//4 11//4 12//4
f 7//3 9//4 10//4
f 13//5 7//3 10//4
f 10//4 12//4 13//5
f 14//6 15//7 16//8
f 17//9 18//10 19//11
f 20//12 21//13 22//13
f 23//13 24//13 25//14
f 20//12 22//13 23//13
f 26//15 20//12 23//13
f 23//13 25//14 27//16
f 23//13 27//16 26//15
s 0
f 28//17 29//17 30//17
f 31//17 32//17 33//17
f 28//17 30//17 31//17
f 34//17 28//17 31//17
f 31//17 33//17 34//17
s 1
f 35//1 36//1 37//1
s 0
f 35//1 37//1 38//1
f 39//1 40//1 41//1
s 1
f 39//1 41//1 419//1
f 42//1 39//1 419//1
s 0
f 42//1 419//1 401//1
f 35//1 43//1 44//1
f 35//1 44//1 36//1
f 45//1 46//1 47//1
f 45//1 47//1 48//1
f 49//1 50//1 51//1
f 49//1 51//1 52//1
f 52//1 51//1 53//1
f 52//1 53//1 54//1
f 54//1 53//1 55//1
f 54//1 55//1 56//1
f 56//1 57//1 58//1
f 56//1 58//1 59//1
f 45//1 48//1 60//1
f 45//1 60//1 61//1
f 38//1 62//1 39//1
f 38//1 39//1 42//1
f 62//1 63//1 40//1
f 62//1 40//1 39//1
f 45//1 61//1 42//1
f 45//1 42//1 401//1
f 64//1 65//1 66//1
f 64//1 66//1 67//1
f 68//1 441//1 398//1
f 68//1 398//1 69//1
f 440//1 70//1 441//1
f 440//1 441//1 68//1
s 1
f 55//1 71//1 57//1
s 0
f 55//1 57//1 56//1
f 37//1 54//1 56//1
f 37//1 56//1 59//1
f 36//1 52//1 54//1
f 36//1 54//1 37//1
f 44//1 49//1 52//1
f 44//1 52//1 36//1
f 71//1 459//1 72//1
f 71//1 72//1 57//1
f 57//1 72//1 73//1
f 57//1 73//1 58//1
f 63//1 74//1 75//1
f 63//1 75//1 40//1
f 459//1 440//1 68//1
f 459//1 68//1 72//1
f 72//1 68//1 69//1
f 72//1 69//1 73//1
f 74//1 64//1 67//1
f 74//1 67//1 75//1
f 43//1 76//1 77//1
f 43//1 77//1 44//1
f 48//1 78//1 79//1
f 48//1 79//1 60//1
f 76//1 79//1 1//1
f 76//1 1//1 80//1
f 80//1 1//1 3//1
f 80//1 3//1 81//1
f 79//1 82//1 2//1
f 79//1 2//1 1//1
f 78//1 83//1 82//1
f 78//1 82//1 79//1
f 83//1 84//1 85//1
f 83//1 85//1 82//1
f 82//1 85//1 86//1
f 82//1 86//1 2//1
f 83//1 87//1 88//1
f 83//1 88//1 84//1
f 87//1 89//1 90//1
f 87//1 90//1 88//1
f 49//1 91//1 92//1
f 49//1 92//1 50//1
f 44//1 77//1 91//1
f 44//1 91//1 49//1
f 91//1 80//1 81//1
f 91//1 81//1 92//1
f 77//1 76//1 80//1
f 77//1 80//1 91//1
f 60//1 79//1 76//1
f 60//1 76//1 43//1
f 73//1 69//1 64//1
f 73//1 64//1 74//1
s 1
f 58//1 73//1 74//1
s 0
f 58//1 74//1 63//1
f 69//1 398//1 65//1
f 69//1 65//1 64//1
f 59//1 58//1 63//1
f 59//1 63//1 62//1
f 37//1 59//1 62//1
f 37//1 62//1 38//1
f 61//1 60//1 43//1
f 61//1 43//1 35//1
f 61//1 35//1 38//1
f 61//1 38//1 42//1
f 93//2 94//2 95//2
f 93//2 95//2 96//2
s 1
f 97//2 446//2 98//2
s 0
f 97//2 98//2 99//2
f 100//2 448//2 446//2
s 1
f 100//2 446//2 97//2
s 0
f 93//2 96//2 101//2
f 93//2 101//2 102//2
f 103//2 104//2 105//2
f 103//2 105//2 106//2
f 107//2 108//2 109//2
f 107//2 109//2 110//2
f 108//2 111//2 112//2
f 108//2 112//2 109//2
f 111//2 113//2 114//2
f 111//2 114//2 112//2
f 113//2 115//2 116//2
f 113//2 116//2 117//2
f 103//2 118//2 119//2
f 103//2 119//2 104//2
f 94//2 100//2 97//2
f 94//2 97//2 120//2
f 120//2 97//2 99//2
f 120//2 99//2 121//2
f 103//2 448//2 100//2
f 103//2 100//2 118//2
f 122//2 123//2 124//2
f 122//2 124//2 125//2
f 126//2 127//2 435//2
f 126//2 435//2 467//2
f 465//2 126//2 467//2
f 465//2 467//2 128//2
f 114//2 113//2 117//2
s 1
f 114//2 117//2 129//2
s 0
f 95//2 115//2 113//2
f 95//2 113//2 111//2
f 96//2 95//2 111//2
f 96//2 111//2 108//2
f 101//2 96//2 108//2
f 101//2 108//2 107//2
f 130//18 131//18 132//18
f 130//18 132//18 133//18
f 129//2 117//2 134//2
f 129//2 134//2 452//2
f 117//2 116//2 135//2
f 117//2 135//2 134//2
f 121//2 99//2 136//2
f 121//2 136//2 137//2
f 452//2 134//2 126//2
f 452//2 126//2 465//2
f 134//2 135//2 127//2
f 134//2 127//2 126//2
f 137//2 136//2 123//2
f 137//2 123//2 122//2
f 102//2 101//2 138//2
f 102//2 138//2 139//2
f 104//2 119//2 140//2
f 104//2 140//2 141//2
f 139//2 142//2 4//2
f 139//2 4//2 140//2
f 142//2 143//2 5//2
f 142//2 5//2 4//2
f 140//2 4//2 6//2
f 140//2 6//2 144//2
f 141//2 140//2 144//2
f 141//2 144//2 145//2
f 145//2 144//2 146//2
f 145//2 146//2 147//2
f 144//2 6//2 148//2
f 144//2 148//2 146//2
f 145//2 147//2 149//2
f 145//2 149//2 150//2
f 150//2 149//2 151//2
f 150//2 151//2 152//2
f 107//2 110//2 153//2
f 107//2 153//2 154//2
f 101//2 107//2 154//2
f 101//2 154//2 138//2
f 154//2 153//2 143//2
f 154//2 143//2 142//2
f 138//2 154//2 142//2
f 138//2 142//2 139//2
f 119//2 102//2 139//2
f 119//2 139//2 140//2
f 135//2 137//2 122//2
f 135//2 122//2 127//2
f 116//2 121//2 137//2
s 1
f 116//2 137//2 135//2
s 0
f 127//2 122//2 125//2
f 127//2 125//2 435//2
f 115//2 120//2 121//2
f 115//2 121//2 116//2
f 95//2 94//2 120//2
f 95//2 120//2 115//2
f 118//2 93//2 102//2
f 118//2 102//2 119//2
f 118//2 100//2 94//2
f 118//2 94//2 93//2
s 1
f 155//19 156//20 418//21
f 155//19 418//21 454//22
f 157//23 158//24 541//25
f 157//23 541//25 399//23
f 159//26 160//26 494//26
s 0
f 159//26 494//26 524//26
f 161//27 162//27 436//27
f 161//27 436//27 497//27
f 160//28 163//28 495//28
f 160//28 495//28 494//28
s 1
f 156//20 493//29 400//29
f 156//20 400//29 418//21
s 0
f 164//30 165//30 466//30
f 164//30 466//30 498//30
s 1
f 166//31 167//32 439//32
f 166//31 439//32 460//33
f 168//34 27//16 25//14
f 168//34 25//14 480//34
f 169//35 170//36 530//37
f 169//35 530//37 449//38
f 31//30 171//39 501//40
f 31//30 501//40 32//30
s 0
f 172//41 173//41 490//41
f 172//41 490//41 488//41
s 1
f 174//42 175//43 472//44
f 174//42 472//44 461//42
f 10//4 521//4 499//4
f 10//4 499//4 11//4
f 176//45 554//45 489//45
f 176//45 489//45 484//45
s 0
f 167//32 545//32 462//32
f 167//32 462//32 439//32
f 555//46 445//46 481//46
f 555//46 481//46 491//46
s 1
f 175//43 169//35 449//38
f 175//43 449//38 472//44
f 177//47 178//48 486//49
f 177//47 486//49 559//47
s 0
f 23//13 179//13 470//13
f 23//13 470//13 24//13
s 1
f 178//48 402//50 542//50
f 178//48 542//50 486//49
f 424//50 155//19 454//22
f 424//50 454//22 528//50
f 180//51 181//52 502//53
f 180//51 502//53 500//54
s 0
f 182//55 412//55 485//55
f 182//55 485//55 525//55
s 1
f 181//52 177//47 559//47
f 181//52 559//47 502//53
f 171//39 180//51 500//54
f 171//39 500//54 501//40
s 0
f 183//47 184//47 185//47
f 183//47 185//47 186//47
f 507//2 509//2 515//2
s 1
f 507//2 515//2 513//2
s 0
f 503//56 505//56 510//56
f 503//56 510//56 508//56
f 544//57 161//57 497//57
f 544//57 497//57 496//57
f 187//26 159//26 524//26
s 1
f 187//26 524//26 478//26
s 0
f 558//58 473//58 479//58
f 558//58 479//58 471//58
s 1
f 170//36 492//18 526//18
f 170//36 526//18 530//37
f 158//24 166//31 460//33
f 158//24 460//33 541//25
f 188//59 189//60 166//31
f 188//59 166//31 158//24
f 190//61 191//18 492//18
f 190//61 492//18 170//36
s 0
f 192//58 193//58 473//58
f 192//58 473//58 558//58
f 371//26 194//26 159//26
f 371//26 159//26 187//26
s 1
f 195//57 196//57 161//57
s 0
f 195//57 161//57 544//57
f 514//32 516//32 431//32
f 514//32 431//32 429//32
f 430//1 432//1 506//1
s 1
f 430//1 506//1 504//1
f 197//62 198//63 180//51
f 197//62 180//51 171//39
f 199//52 200//47 177//47
f 199//52 177//47 181//52
s 0
f 561//55 201//55 412//55
f 561//55 412//55 182//55
s 1
f 198//63 199//52 181//52
f 198//63 181//52 180//51
f 406//50 202//64 155//19
f 406//50 155//19 424//50
f 203//65 386//50 402//50
f 203//65 402//50 178//48
s 0
f 22//13 447//13 179//13
f 22//13 179//13 23//13
s 1
f 200//47 203//65 178//48
f 200//47 178//48 177//47
f 204//66 205//67 169//35
f 204//66 169//35 175//43
s 0
f 206//46 207//46 445//46
f 206//46 445//46 555//46
f 208//32 209//32 545//32
f 208//32 545//32 167//32
s 1
f 487//45 210//45 554//45
s 0
f 487//45 554//45 176//45
s 1
f 9//4 211//4 521//4
f 9//4 521//4 10//4
f 560//42 204//66 175//43
f 560//42 175//43 174//42
s 0
f 527//41 368//41 173//41
f 527//41 173//41 172//41
s 1
f 30//30 197//62 171//39
f 30//30 171//39 31//30
f 205//67 190//61 170//36
f 205//67 170//36 169//35
f 453//34 26//15 27//16
f 453//34 27//16 168//34
f 189//60 208//32 167//32
f 189//60 167//32 166//31
s 0
f 367//30 34//30 165//30
f 367//30 165//30 164//30
s 1
f 212//68 213//29 493//29
f 212//68 493//29 156//20
s 0
f 214//28 562//28 163//28
f 214//28 163//28 160//28
s 1
f 196//27 13//5 162//27
s 0
f 196//27 162//27 161//27
f 194//26 214//26 160//26
f 194//26 160//26 159//26
s 1
f 366//23 188//59 158//24
f 366//23 158//24 157//23
f 202//64 212//68 156//20
f 202//64 156//20 155//19
f 405//69 378//70 212//68
f 405//69 212//68 202//64
f 427//23 374//71 188//59
f 427//23 188//59 366//23
s 0
f 394//26 423//26 214//26
f 394//26 214//26 194//26
s 1
f 389//27 7//3 13//5
f 389//27 13//5 196//27
s 0
f 423//28 384//28 562//28
f 423//28 562//28 214//28
s 1
f 378//70 428//29 213//29
f 378//70 213//29 212//68
s 0
f 382//30 28//30 34//30
f 382//30 34//30 367//30
s 1
f 458//72 375//32 208//32
f 458//72 208//32 189//60
f 437//34 20//12 26//15
f 437//34 26//15 453//34
f 417//73 395//74 190//61
f 417//73 190//61 205//67
f 29//30 483//51 197//62
f 29//30 197//62 30//30
s 0
f 539//41 468//41 368//41
f 539//41 368//41 527//41
s 1
f 376//42 517//75 204//66
f 376//42 204//66 560//42
s 0
f 8//4 383//4 211//4
f 8//4 211//4 9//4
s 1
f 463//45 540//45 210//45
f 463//45 210//45 487//45
s 0
f 375//32 377//32 209//32
f 375//32 209//32 208//32
s 1
f 469//46 438//46 207//46
f 469//46 207//46 206//46
f 517//75 417//73 205//67
f 517//75 205//67 204//66
f 413//47 379//76 203//65
f 413//47 203//65 200//47
s 0
f 21//13 433//13 447//13
f 21//13 447//13 22//13
s 1
f 379//76 372//50 386//50
f 379//76 386//50 203//65
f 511//50 405//69 202//64
f 511//50 202//64 406//50
f 482//77 455//52 199//52
f 482//77 199//52 198//63
s 0
f 392//55 464//55 201//55
f 392//55 201//55 561//55
s 1
f 455//52 413//47 200//47
f 455//52 200//47 199//52
f 483//51 482//77 198//63
f 483//51 198//63 197//62
s 0
f 385//57 389//57 196//57
f 385//57 196//57 195//57
f 556//26 394//26 194//26
f 556//26 194//26 371//26
f 434//58 557//58 193//58
f 434//58 193//58 192//58
s 1
f 395//74 393//18 191//18
f 395//74 191//18 190//61
f 374//71 458//72 189//60
f 374//71 189//60 188//59
s 0
f 92//1 81//1 215//1
f 92//1 215//1 216//1
f 143//2 153//2 217//2
f 143//2 217//2 218//2
s 1
f 360//78 420//79 414//80
f 360//78 414//80 364//81
f 362//82 415//83 421//84
f 362//82 421//84 522//85
f 512//86 17//9 19//11
f 512//86 19//11 363//87
f 18//10 529//88 365//89
f 18//10 365//89 19//11
f 15//7 373//90 523//91
f 15//7 523//91 16//8
f 543//92 14//6 16//8
f 543//92 16//8 361//93
f 425//94 416//95 422//94
f 425//94 422//94 403//96
s 0
f 407//97 387//97 404//97
f 407//97 404//97 426//97
s 1
f 420//79 388//98 408//99
f 420//79 408//99 414//80
s 0
f 219//32 220//32 221//32
f 219//32 221//32 222//32
s 1
f 223//100 224//101 225//101
f 223//100 349//102 226//102
s 0
f 348//56 350//56 227//56
f 348//56 227//56 228//56
s 1
f 229//103 230//104 550//104
f 229//103 551//105 553//105
s 0
f 231//18 232//18 233//18
f 231//18 233//18 234//18
f 235//47 358//47 552//47
f 235//47 552//47 520//47
f 351//47 444//47 236//47
f 351//47 236//47 537//47
s 1
f 237//18 231//18 234//18
s 0
f 237//18 234//18 238//18
f 535//2 538//2 409//2
s 1
f 536//106 410//107 239//108
f 240//109 342//110 224//101
f 240//109 224//101 223//100
s 0
f 356//1 359//1 343//1
s 1
f 357//111 342//110 240//109
s 0
f 241//18 237//18 238//18
f 241//18 238//18 242//18
f 444//47 235//47 520//47
s 1
f 444//47 520//47 236//47
f 239//108 410//107 230//104
f 239//108 230//104 229//103
f 243//112 239//108 229//103
f 243//112 229//103 244//113
f 245//114 357//111 240//109
f 245//114 240//109 246//115
f 246//115 240//109 223//100
f 246//115 223//100 247//116
f 248//117 536//106 239//108
f 248//117 239//108 243//112
f 244//113 229//103 553//105
f 244//113 553//105 249//118
s 0
f 250//56 348//56 228//56
f 250//56 228//56 531//56
s 1
f 247//116 223//100 226//102
f 247//116 226//102 344//119
s 0
f 546//32 219//32 222//32
f 546//32 222//32 352//32
f 548//32 546//32 352//32
s 1
f 548//32 352//32 353//32
f 442//120 247//116 344//119
s 0
f 443//1 345//1 346//1
s 1
f 347//56 250//56 531//56
s 0
f 347//56 531//56 532//56
s 1
f 518//121 244//113 249//118
s 0
f 519//2 547//2 549//2
s 1
f 533//117 248//117 243//112
f 534//122 243//112 411//122
f 341//123 246//115 247//116
f 341//123 247//116 442//120
f 354//114 245//114 246//115
f 355//123 246//115 341//123
f 411//122 243//112 244//113
f 411//122 244//113 518//121
f 251//124 252//125 253//125
f 251//124 253//125 254//126
f 255//127 256//128 257//128
f 255//127 257//128 258//129
f 259//130 260//131 261//132
f 259//130 261//132 262//130
f 339//133 255//127 258//129
f 339//133 258//129 396//133
f 263//134 380//135 315//135
f 263//134 315//135 264//136
f 265//137 251//124 254//126
f 265//137 254//126 266//137
f 260//131 333//138 325//138
f 260//131 325//138 261//132
f 335//139 263//134 264//136
f 335//139 264//136 327//139
s 0
f 267//47 268//47 269//47
f 267//47 269//47 270//47
f 305//1 309//1 271//1
f 305//1 271//1 272//1
f 303//18 307//18 273//18
f 303//18 273//18 274//18
f 474//2 311//2 313//2
f 474//2 313//2 476//2
f 306//32 304//32 475//32
f 306//32 475//32 477//32
f 308//56 310//56 314//56
f 308//56 314//56 312//56
f 319//56 336//56 275//56
f 319//56 275//56 276//56
f 456//56 340//56 277//56
f 456//56 277//56 278//56
f 334//56 320//56 279//56
f 334//56 279//56 280//56
f 320//56 381//56 281//56
f 320//56 281//56 279//56
f 457//56 334//56 280//56
f 457//56 280//56 282//56
f 336//56 456//56 278//56
f 336//56 278//56 275//56
f 340//56 457//56 282//56
f 340//56 282//56 277//56
f 381//56 319//56 276//56
f 381//56 276//56 281//56
f 328//32 317//32 283//32
f 328//32 283//32 284//32
f 397//32 337//32 285//32
f 397//32 285//32 286//32
f 318//32 326//32 287//32
f 318//32 287//32 288//32
f 316//32 318//32 288//32
f 316//32 288//32 289//32
f 326//32 338//32 290//32
f 326//32 290//32 287//32
f 337//32 328//32 284//32
f 337//32 284//32 285//32
f 338//32 397//32 286//32
f 338//32 286//32 290//32
f 317//32 316//32 289//32
f 317//32 289//32 283//32
s 1
f 296//125 391//140 451//124
f 296//125 451//124 369//125
f 390//129 297//133 370//133
f 390//129 370//133 450//127
f 329//128 390//129 450//127
f 329//128 450//127 321//128
s 0
f 298//139 330//139 322//139
f 298//139 322//139 292//139
s 1
f 302//141 299//142 293//142
f 302//141 293//142 291//143
f 300//144 302//141 291//143
f 300//144 291//143 294//144
s 0
f 331//138 301//138 295//138
f 331//138 295//138 323//138
s 1
f 391//140 332//137 324//137
f 391//140 324//137 451//124
o Plane_1
v 1.316880 -0.008700 0.127800
v 1.316880 -0.008700 0.048200
v 0.479870 -0.001390 0.048200
v 0.479870 -0.001390 0.127800
v 0.479870 -0.001390 0.292300
v 1.316880 -0.008700 0.292300
v 1.316880 -0.008700 0.216070
v 1.347800 -0.413570 0.048200
v 1.482130 -0.900500 0.048200
v 0.619930 -0.893190 0.048200
v 0.510790 -0.406260 0.048200
v 1.641640 -1.353850 0.048200
v 0.737470 -1.346540 0.048200
v 1.817940 -1.723240 0.048200
v 1.022910 -2.009770 0.048200
v 1.347800 -0.413570 0.292300
v 0.510790 -0.406260 0.292300
v 0.619930 -0.893190 0.292300
v 1.482130 -0.900500 0.292300
v 0.737470 -1.346540 0.292300
v 1.641640 -1.353850 0.292300
v 1.022910 -2.009770 0.292300
v 1.817940 -1.723240 0.292300
v 1.022910 -2.009770 0.216070
v 1.817940 -1.723240 0.216070
v 0.737470 -1.346540 0.216070
v 1.641640 -1.353850 0.216070
v 0.510790 -0.406260 0.216070
v 0.619930 -0.893190 0.216070
v 1.482130 -0.900500 0.216070
v 1.347800 -0.413570 0.216070
v 1.641640 -1.353850 0.127800
v 1.482130 -0.900500 0.127800
v 0.619930 -0.893190 0.127800
v 0.737470 -1.346540 0.127800
v 1.347800 -0.413570 0.127800
v 0.510790 -0.406260 0.127800
v 1.817940 -1.723240 0.127800
v 1.022910 -2.009770 0.127800
v 2.021590 0.326800 0.425110
v 1.975420 1.061770 0.425110
v 1.975420 1.061770 -0.086210
v 2.021590 0.326800 -0.086210
v 3.197540 1.062420 -0.086210
v 3.243720 0.398250 -0.086210
v 3.197540 1.062420 0.425110
v 3.243720 0.398250 0.425110
v 0.479870 -0.001390 0.216070
v 1.641640 -1.353850 0.292300
v 0.619930 -0.893190 0.292300
v 1.817940 -1.723240 0.048200
v 1.817940 -1.723240 0.048200
v 0.510790 -0.406260 0.292300
v 1.022910 -2.009770 0.048200
v 1.022910 -2.009770 0.048200
v 0.479870 -0.001390 0.292300
v 0.479870 -0.001390 0.292300
v 3.197540 1.062420 -0.086210
v 3.197540 1.062420 -0.086210
v 1.316880 -0.008700 0.216070
v 1.817940 -1.723240 0.292300
v 1.817940 -1.723240 0.292300
v 1.022910 -2.009770 0.292300
v 1.022910 -2.009770 0.292300
v 1.316880 -0.008700 0.292300
v 1.316880 -0.008700 0.292300
v 1.347800 -0.413570 0.292300
v 0.479870 -0.001390 0.127800
v 1.316880 -0.008700 0.048200
v 1.316880 -0.008700 0.048200
v 0.737470 -1.346540 0.292300
v 1.482130 -0.900500 0.048200
v 1.347800 -0.413570 0.048200
v 0.479870 -0.001390 0.048200
v 0.479870 -0.001390 0.048200
v 1.022910 -2.009770 0.216070
v 1.316880 -0.008700 0.127800
v 0.619930 -0.893190 0.048200
v 1.817940 -1.723240 0.216070
v 0.510790 -0.406260 0.048200
v 1.482130 -0.900500 0.292300
v 1.022910 -2.009770 0.127800
v 1.641640 -1.353850 0.048200
v 3.243720 0.398250 -0.086210
v 3.243720 0.398250 -0.086210
v 3.243720 0.398250 0.425110
v 3.243720 0.398250 0.425110
v 0.737470 -1.346540 0.048200
v 1.817940 -1.723240 0.127800
v 2.021590 0.326800 0.425110
v 2.021590 0.326800 0.425110
v 1.975420 1.061770 0.425110
v 1.975420 1.061770 0.425110
v 1.975420 1.061770 -0.086210
v 1.975420 1.061770 -0.086210
v 2.021590 0.326800 -0.086210
v 2.021590 0.326800 -0.086210
v 3.197540 1.062420 0.425110
v 3.197540 1.062420 0.425110
vn 0.0087 1.0000 -0.0000
vn -0.0000 -0.0000 -1.0000
vn -0.0000 -0.0000 1.0000
vn 0.3391 -0.9408 -0.0000
vn -0.9412 -0.3378 -0.0000
vn -0.9185 -0.3953 -0.0000
vn -0.9492 -0.3147 -0.0000
vn 0.9025 0.4307 -0.0000
vn 0.9254 0.3791 -0.0000
vn 0.9188 0.3947 -0.0000
vn -0.9879 -0.1551 -0.0000
vn -0.9722 -0.2340 -0.0000
vn -0.9734 -0.2290 -0.0000
vn 0.9542 0.2991 -0.0000
vn 0.9833 0.1822 -0.0000
vn 0.9510 0.3093 -0.0000
vn 0.9262 0.3770 -0.0000
vn 0.9547 0.2977 -0.0000
vn -0.9720 -0.2349 -0.0000
vn -0.9402 -0.3407 -0.0000
vn -0.9327 -0.3607 -0.0000
vn 0.9322 0.3619 -0.0000
vn -0.9708 -0.2398 -0.0000
vn 0.9578 0.2874 -0.0000
vn -0.9980 -0.0627 -0.0000
vn 0.9976 0.0694 -0.0000
vn 0.0584 -0.9983 -0.0000
vn -0.0005 1.0000 -0.0000
vn 0.9971 0.0761 -0.0000
vn -0.9971 -0.0761 -0.0000
s 0
usemtl Material.002
f 563//145 564//145 565//145
f 563//145 565//145 566//145
s 1
f 567//145 568//145 569//145
s 0
f 569//145 563//145 566//145
f 566//145 567//145 569//145
f 570//146 571//146 572//146
s 1
f 570//146 572//146 573//146
s 0
f 571//146 574//146 575//146
f 571//146 575//146 572//146
f 574//146 576//146 577//146
f 574//146 577//146 575//146
s 1
f 578//147 579//147 580//147
s 0
f 578//147 580//147 581//147
f 581//147 580//147 582//147
f 581//147 582//147 583//147
f 583//147 582//147 584//147
f 583//147 584//147 585//147
f 586//148 587//148 623//148
f 586//148 623//148 625//148
s 1
f 588//149 638//150 626//150
f 588//149 626//150 633//151
f 641//152 589//153 611//154
f 641//152 611//154 624//152
f 590//155 591//156 612//157
f 590//155 612//157 615//155
f 592//158 593//159 629//159
f 592//158 629//159 643//160
f 591//156 588//149 633//151
f 591//156 633//151 612//157
f 589//153 592//158 643//160
f 589//153 643//160 611//154
f 594//161 595//162 592//158
f 594//161 592//158 589//153
f 596//163 597//164 588//149
f 596//163 588//149 591//156
f 595//162 598//159 593//159
f 595//162 593//159 592//158
f 599//155 596//163 591//156
f 599//155 591//156 590//155
f 600//152 594//161 589//153
f 600//152 589//153 641//152
f 597//164 601//150 638//150
f 597//164 638//150 588//149
s 0
f 644//148 651//148 587//148
f 644//148 587//148 586//148
f 616//148 613//148 651//148
f 616//148 651//148 644//148
s 1
f 650//165 617//150 601//150
f 650//165 601//150 597//164
f 614//152 645//166 594//161
f 614//152 594//161 600//152
f 642//155 640//167 596//163
f 642//155 596//163 599//155
f 634//168 635//159 598//159
f 634//168 598//159 595//162
f 640//167 650//165 597//164
f 640//167 597//164 596//163
f 645//166 634//168 595//162
f 645//166 595//162 594//161
s 0
f 602//169 603//169 604//169
f 602//169 604//169 605//169
f 658//146 656//146 606//146
f 658//146 606//146 607//146
f 646//170 620//170 608//170
f 646//170 608//170 609//170
f 648//147 660//147 654//147
f 648//147 654//147 652//147
f 659//171 647//171 649//171
f 659//171 649//171 653//171
f 621//172 657//172 655//172
f 621//172 655//172 661//172
s 1
f 593//159 598//159 639//173
f 593//159 639//173 622//173
f 629//159 593//159 622//173
f 629//159 622//173 627//173
s 0
f 579//147 578//147 628//147
f 579//147 628//147 618//147
s 1
f 590//155 615//155 619//174
f 590//155 619//174 610//174
f 642//155 599//155 630//174
f 642//155 630//174 636//174
f 599//155 590//155 610//174
f 599//155 610//174 630//174
s 0
f 570//146 573//146 637//146
f 570//146 637//146 631//146
s 1
f 598//159 635//159 632//173
f 598//159 632//173 639//173
